
<svg width="800" height="500" viewBox="0 0 800 500" fill="none" xmlns="http://www.w3.org/2000/svg">
  <!-- Background -->
  <rect width="800" height="500" rx="20" fill="#F8FAFC"/>
  
  <!-- Title -->
  <text x="400" y="40" font-family="Inter, sans-serif" font-size="24" font-weight="600" fill="#1E293B" text-anchor="middle">Drisa_AI Agent Architecture</text>
  
  <!-- User Section -->
  <rect x="50" y="180" width="120" height="140" rx="12" fill="white" stroke="#E2E8F0" stroke-width="2"/>
  <circle cx="110" cy="230" r="20" fill="#3B82F6" fill-opacity="0.1" stroke="#3B82F6" stroke-width="2"/>
  <path d="M110 235V255M100 245H120" stroke="#3B82F6" stroke-width="2" stroke-linecap="round"/>
  <text x="110" y="290" font-family="Inter, sans-serif" font-size="14" font-weight="500" fill="#64748B" text-anchor="middle">User Interface</text>
  <text x="110" y="305" font-family="Inter, sans-serif" font-size="10" fill="#94A3B8" text-anchor="middle">(Web / Voice)</text>

  <!-- Connection Line -->
  <path d="M170 250H240" stroke="#94A3B8" stroke-width="2" stroke-dasharray="4 4"/>
  <path d="M235 245L245 250L235 255" fill="#94A3B8"/>
  <text x="205" y="240" font-family="Inter, sans-serif" font-size="10" fill="#64748B" text-anchor="middle">WebSocket / HTTPS</text>

  <!-- Backend Section -->
  <rect x="250" y="150" width="200" height="200" rx="16" fill="#1E293B"/>
  <text x="350" y="190" font-family="Inter, sans-serif" font-size="16" font-weight="600" fill="white" text-anchor="middle">Drisa_AI Backend</text>
  <text x="350" y="210" font-family="Inter, sans-serif" font-size="12" fill="#94A3B8" text-anchor="middle">(Node.js / Express)</text>
  
  <!-- Inner Backend Components -->
  <rect x="270" y="230" width="160" height="30" rx="6" fill="#334155"/>
  <text x="350" y="250" font-family="Inter, sans-serif" font-size="11" fill="#E2E8F0" text-anchor="middle">Session Management</text>
  <rect x="270" y="270" width="160" height="30" rx="6" fill="#334155"/>
  <text x="350" y="290" font-family="Inter, sans-serif" font-size="11" fill="#E2E8F0" text-anchor="middle">Tool Orchestration</text>
  <rect x="270" y="310" width="160" height="30" rx="6" fill="#334155"/>
  <text x="350" y="330" font-family="Inter, sans-serif" font-size="11" fill="#E2E8F0" text-anchor="middle">Real-time Proxy</text>

  <!-- Gemini AI Section -->
  <path d="M450 200H520" stroke="#10B981" stroke-width="2"/>
  <path d="M515 195L525 200L515 205" fill="#10B981"/>
  <rect x="530" y="140" width="180" height="100" rx="12" fill="white" stroke="#10B981" stroke-width="2"/>
  <text x="620" y="175" font-family="Inter, sans-serif" font-size="14" font-weight="600" fill="#065F46" text-anchor="middle">Gemini AI</text>
  <text x="620" y="195" font-family="Inter, sans-serif" font-size="11" fill="#047857" text-anchor="middle">2.5 Flash Native Audio</text>
  <circle cx="620" cy="215" r="15" fill="#10B981" fill-opacity="0.1"/>
  <path d="M615 215L620 210L625 215L620 220L615 215Z" fill="#10B981"/>

  <!-- Database Section -->
  <path d="M450 300H520" stroke="#6366F1" stroke-width="2"/>
  <path d="M515 295L525 300L515 305" fill="#6366F1"/>
  <rect x="530" y="260" width="180" height="100" rx="12" fill="white" stroke="#6366F1" stroke-width="2"/>
  <text x="620" y="295" font-family="Inter, sans-serif" font-size="14" font-weight="600" fill="#3730A3" text-anchor="middle">Database</text>
  <text x="620" y="315" font-family="Inter, sans-serif" font-size="11" fill="#4338CA" text-anchor="middle">SQLite / Firestore</text>
  <path d="M610 325C610 322 630 322 630 325M610 325V335C610 338 630 338 630 335V325M610 325C610 328 630 328 630 325" stroke="#6366F1" stroke-width="1.5"/>

  <!-- External Tools Section -->
  <path d="M350 350V410" stroke="#F59E0B" stroke-width="2"/>
  <path d="M345 405L350 415L355 405" fill="#F59E0B"/>
  <rect x="250" y="420" width="300" height="60" rx="12" fill="white" stroke="#F59E0B" stroke-width="2"/>
  <text x="400" y="445" font-family="Inter, sans-serif" font-size="14" font-weight="600" fill="#92400E" text-anchor="middle">External Integrations &amp; Tools</text>
  <text x="400" y="465" font-family="Inter, sans-serif" font-size="11" fill="#B45309" text-anchor="middle">WhatsApp • Email • Product Catalog API</text>

  <!-- Legend / Flow -->
  <text x="70" y="480" font-family="Inter, sans-serif" font-size="10" fill="#94A3B8">© 2026 Drisa_AI Agent System Architecture</text>
</svg>
